<mxfile modified="2022-05-02T08:02:14.565Z" host="app.diagrams.net" agent="5.0 (Windows NT 10.0; Win64; x64) AppleWebKit/537.36 (KHTML, like Gecko) Chrome/100.0.4896.127 Safari/537.36 Edg/100.0.1185.50" etag="i1jxZfU74DoSVLG4knDo" compressed="false" version="17.5.0" type="google">
  <diagram id="3rPyRiTxioCcU-Mf_-pj" name="Page-11">
    <mxGraphModel grid="1" page="1" gridSize="10" guides="1" tooltips="1" connect="1" arrows="1" fold="1" pageScale="1" pageWidth="1169" pageHeight="1654" math="0" shadow="0">
      <root>
        <mxCell id="EGHW0OWQz3DH860hegJ5-0" />
        <mxCell id="EGHW0OWQz3DH860hegJ5-1" parent="EGHW0OWQz3DH860hegJ5-0" />
        <mxCell id="hYrb0QFWA3ND62_-WqY5-12" value="references" style="edgeStyle=orthogonalEdgeStyle;rounded=0;orthogonalLoop=1;jettySize=auto;html=1;entryX=0;entryY=0.5;entryDx=0;entryDy=0;endArrow=classicThin;endFill=1;fontSize=10;exitX=0.25;exitY=0;exitDx=0;exitDy=0;" edge="1" parent="EGHW0OWQz3DH860hegJ5-1" source="hYrb0QFWA3ND62_-WqY5-27" target="hYrb0QFWA3ND62_-WqY5-25">
          <mxGeometry x="0.2727" relative="1" as="geometry">
            <Array as="points">
              <mxPoint x="140" y="400" />
            </Array>
            <mxPoint as="offset" />
          </mxGeometry>
        </mxCell>
        <mxCell id="hYrb0QFWA3ND62_-WqY5-13" value="follows" style="edgeStyle=orthogonalEdgeStyle;rounded=0;jumpStyle=arc;orthogonalLoop=1;jettySize=auto;html=1;entryX=0;entryY=0.5;entryDx=0;entryDy=0;endArrow=classicThin;endFill=1;fillColor=#ffffff;fontSize=10;" edge="1" parent="EGHW0OWQz3DH860hegJ5-1" source="hYrb0QFWA3ND62_-WqY5-14" target="hYrb0QFWA3ND62_-WqY5-16">
          <mxGeometry relative="1" as="geometry" />
        </mxCell>
        <mxCell id="hYrb0QFWA3ND62_-WqY5-14" value="Software Implentation Initiation" style="rounded=1;whiteSpace=wrap;html=1;fontSize=10;strokeWidth=2;" vertex="1" parent="EGHW0OWQz3DH860hegJ5-1">
          <mxGeometry x="240" y="200" width="80" height="40" as="geometry" />
        </mxCell>
        <mxCell id="hYrb0QFWA3ND62_-WqY5-15" value="initiates" style="edgeStyle=orthogonalEdgeStyle;rounded=0;jumpStyle=arc;orthogonalLoop=1;jettySize=auto;html=1;entryX=0.5;entryY=0;entryDx=0;entryDy=0;endArrow=classicThin;endFill=1;fillColor=#ffffff;fontSize=10;exitX=0.5;exitY=1;exitDx=0;exitDy=0;" edge="1" parent="EGHW0OWQz3DH860hegJ5-1" source="hYrb0QFWA3ND62_-WqY5-16" target="hYrb0QFWA3ND62_-WqY5-17">
          <mxGeometry relative="1" as="geometry" />
        </mxCell>
        <mxCell id="hYrb0QFWA3ND62_-WqY5-16" value="Project Plan" style="rounded=0;whiteSpace=wrap;html=1;fontSize=10;strokeColor=#666666;fontColor=#333333;strokeWidth=2;fillColor=none;" vertex="1" parent="EGHW0OWQz3DH860hegJ5-1">
          <mxGeometry x="360" y="200" width="80" height="40" as="geometry" />
        </mxCell>
        <mxCell id="hYrb0QFWA3ND62_-WqY5-17" value="Project Repository" style="rounded=0;whiteSpace=wrap;html=1;fontSize=10;strokeColor=#d79b00;fillColor=none;strokeWidth=2;" vertex="1" parent="EGHW0OWQz3DH860hegJ5-1">
          <mxGeometry x="360" y="280" width="80" height="40" as="geometry" />
        </mxCell>
        <mxCell id="hYrb0QFWA3ND62_-WqY5-18" style="edgeStyle=orthogonalEdgeStyle;rounded=0;jumpStyle=arc;orthogonalLoop=1;jettySize=auto;html=1;entryX=1;entryY=0.5;entryDx=0;entryDy=0;endArrow=classicThin;endFill=1;strokeWidth=1;fillColor=#ffffff;fontSize=10;" edge="1" parent="EGHW0OWQz3DH860hegJ5-1" source="hYrb0QFWA3ND62_-WqY5-19" target="hYrb0QFWA3ND62_-WqY5-25">
          <mxGeometry relative="1" as="geometry" />
        </mxCell>
        <mxCell id="hYrb0QFWA3ND62_-WqY5-19" value="Requirements&lt;br&gt;In/Out Validation Report" style="rounded=0;whiteSpace=wrap;html=1;fontSize=10;" vertex="1" parent="EGHW0OWQz3DH860hegJ5-1">
          <mxGeometry x="480" y="380" width="80" height="40" as="geometry" />
        </mxCell>
        <mxCell id="hYrb0QFWA3ND62_-WqY5-20" value="develop" style="edgeStyle=orthogonalEdgeStyle;rounded=0;orthogonalLoop=1;jettySize=auto;html=1;entryX=0.5;entryY=0;entryDx=0;entryDy=0;endArrow=classicThin;endFill=1;fontSize=10;exitX=1;exitY=0.75;exitDx=0;exitDy=0;" edge="1" parent="EGHW0OWQz3DH860hegJ5-1" source="hYrb0QFWA3ND62_-WqY5-21" target="hYrb0QFWA3ND62_-WqY5-25">
          <mxGeometry relative="1" as="geometry" />
        </mxCell>
        <mxCell id="hYrb0QFWA3ND62_-WqY5-21" value="Software Requirements Analysis" style="rounded=1;whiteSpace=wrap;html=1;fontSize=10;strokeWidth=2;" vertex="1" parent="EGHW0OWQz3DH860hegJ5-1">
          <mxGeometry x="240" y="320" width="80" height="40" as="geometry" />
        </mxCell>
        <mxCell id="hYrb0QFWA3ND62_-WqY5-22" value="references" style="edgeStyle=orthogonalEdgeStyle;rounded=0;orthogonalLoop=1;jettySize=auto;html=1;entryX=0.25;entryY=1;entryDx=0;entryDy=0;endArrow=classicThin;endFill=1;fontSize=10;exitX=0.25;exitY=0;exitDx=0;exitDy=0;" edge="1" parent="EGHW0OWQz3DH860hegJ5-1" source="hYrb0QFWA3ND62_-WqY5-23" target="hYrb0QFWA3ND62_-WqY5-41">
          <mxGeometry relative="1" as="geometry">
            <Array as="points" />
          </mxGeometry>
        </mxCell>
        <mxCell id="hYrb0QFWA3ND62_-WqY5-23" value="Design Verification Report" style="rounded=0;whiteSpace=wrap;html=1;fontSize=10;strokeColor=#6c8ebf;fillColor=none;strokeWidth=2;" vertex="1" parent="EGHW0OWQz3DH860hegJ5-1">
          <mxGeometry x="120" y="860" width="80" height="40" as="geometry" />
        </mxCell>
        <mxCell id="hYrb0QFWA3ND62_-WqY5-24" value="within" style="edgeStyle=orthogonalEdgeStyle;rounded=0;jumpStyle=arc;orthogonalLoop=1;jettySize=auto;html=1;entryX=0.75;entryY=1;entryDx=0;entryDy=0;endArrow=classicThin;endFill=1;fillColor=#ffffff;fontSize=10;exitX=0.75;exitY=0;exitDx=0;exitDy=0;" edge="1" parent="EGHW0OWQz3DH860hegJ5-1" source="hYrb0QFWA3ND62_-WqY5-25" target="hYrb0QFWA3ND62_-WqY5-17">
          <mxGeometry x="0.3333" relative="1" as="geometry">
            <mxPoint as="offset" />
          </mxGeometry>
        </mxCell>
        <mxCell id="hYrb0QFWA3ND62_-WqY5-25" value="Requirements&lt;br&gt;Specification" style="rounded=0;whiteSpace=wrap;html=1;fontSize=10;strokeColor=#666666;fontColor=#333333;fillColor=none;strokeWidth=2;" vertex="1" parent="EGHW0OWQz3DH860hegJ5-1">
          <mxGeometry x="360" y="380" width="80" height="40" as="geometry" />
        </mxCell>
        <mxCell id="hYrb0QFWA3ND62_-WqY5-26" value="Change Request" style="rounded=0;whiteSpace=wrap;html=1;fontSize=10;" vertex="1" parent="EGHW0OWQz3DH860hegJ5-1">
          <mxGeometry x="480" y="440" width="80" height="40" as="geometry" />
        </mxCell>
        <mxCell id="hYrb0QFWA3ND62_-WqY5-27" value="Test Cases &amp;amp; Test Procedures" style="rounded=0;whiteSpace=wrap;html=1;fontSize=10;fillColor=none;strokeWidth=2;" vertex="1" parent="EGHW0OWQz3DH860hegJ5-1">
          <mxGeometry x="120" y="620" width="80" height="40" as="geometry" />
        </mxCell>
        <mxCell id="hYrb0QFWA3ND62_-WqY5-28" value="&lt;p style=&quot;line-height: 90%&quot;&gt;Software Architecture&amp;nbsp;&lt;br&gt;Description (SAD)&lt;/p&gt;" style="rounded=0;whiteSpace=wrap;html=1;fontSize=10;strokeColor=#6c8ebf;fillColor=none;strokeWidth=2;" vertex="1" parent="EGHW0OWQz3DH860hegJ5-1">
          <mxGeometry x="360" y="500" width="80" height="40" as="geometry" />
        </mxCell>
        <mxCell id="hYrb0QFWA3ND62_-WqY5-29" value="develop" style="edgeStyle=orthogonalEdgeStyle;rounded=0;orthogonalLoop=1;jettySize=auto;html=1;entryX=0.5;entryY=0;entryDx=0;entryDy=0;endArrow=classicThin;endFill=1;fontSize=10;exitX=1;exitY=0.75;exitDx=0;exitDy=0;" edge="1" parent="EGHW0OWQz3DH860hegJ5-1" source="hYrb0QFWA3ND62_-WqY5-33" target="hYrb0QFWA3ND62_-WqY5-28">
          <mxGeometry relative="1" as="geometry" />
        </mxCell>
        <mxCell id="hYrb0QFWA3ND62_-WqY5-30" value="develop" style="edgeStyle=orthogonalEdgeStyle;rounded=0;orthogonalLoop=1;jettySize=auto;html=1;entryX=0.75;entryY=0;entryDx=0;entryDy=0;endArrow=classicThin;endFill=1;fontSize=10;" edge="1" parent="EGHW0OWQz3DH860hegJ5-1" source="hYrb0QFWA3ND62_-WqY5-33" target="hYrb0QFWA3ND62_-WqY5-27">
          <mxGeometry relative="1" as="geometry" />
        </mxCell>
        <mxCell id="hYrb0QFWA3ND62_-WqY5-31" value="refer to" style="edgeStyle=orthogonalEdgeStyle;rounded=0;orthogonalLoop=1;jettySize=auto;html=1;entryX=0.5;entryY=1;entryDx=0;entryDy=0;endArrow=classicThin;endFill=1;fontSize=10;exitX=1;exitY=0.25;exitDx=0;exitDy=0;" edge="1" parent="EGHW0OWQz3DH860hegJ5-1" source="hYrb0QFWA3ND62_-WqY5-33" target="hYrb0QFWA3ND62_-WqY5-25">
          <mxGeometry relative="1" as="geometry" />
        </mxCell>
        <mxCell id="hYrb0QFWA3ND62_-WqY5-32" value="geenrate" style="edgeStyle=orthogonalEdgeStyle;rounded=0;orthogonalLoop=1;jettySize=auto;html=1;entryX=0;entryY=0.5;entryDx=0;entryDy=0;endArrow=classicThin;endFill=1;fontSize=10;" edge="1" parent="EGHW0OWQz3DH860hegJ5-1" source="hYrb0QFWA3ND62_-WqY5-33" target="hYrb0QFWA3ND62_-WqY5-26">
          <mxGeometry relative="1" as="geometry" />
        </mxCell>
        <mxCell id="hYrb0QFWA3ND62_-WqY5-33" value="Software Architecture &amp;amp; Detailed Design" style="rounded=1;whiteSpace=wrap;html=1;fontSize=10;strokeWidth=2;" vertex="1" parent="EGHW0OWQz3DH860hegJ5-1">
          <mxGeometry x="240" y="440" width="80" height="40" as="geometry" />
        </mxCell>
        <mxCell id="hYrb0QFWA3ND62_-WqY5-34" value="use" style="edgeStyle=orthogonalEdgeStyle;rounded=0;orthogonalLoop=1;jettySize=auto;html=1;entryX=0.5;entryY=1;entryDx=0;entryDy=0;endArrow=classicThin;endFill=1;fontSize=10;exitX=1;exitY=0.25;exitDx=0;exitDy=0;" edge="1" parent="EGHW0OWQz3DH860hegJ5-1" source="hYrb0QFWA3ND62_-WqY5-38" target="hYrb0QFWA3ND62_-WqY5-28">
          <mxGeometry relative="1" as="geometry" />
        </mxCell>
        <mxCell id="hYrb0QFWA3ND62_-WqY5-35" value="develop" style="edgeStyle=orthogonalEdgeStyle;rounded=0;orthogonalLoop=1;jettySize=auto;html=1;entryX=0.25;entryY=0;entryDx=0;entryDy=0;endArrow=classicThin;endFill=1;fontSize=10;exitX=1;exitY=0.75;exitDx=0;exitDy=0;" edge="1" parent="EGHW0OWQz3DH860hegJ5-1" source="hYrb0QFWA3ND62_-WqY5-38" target="hYrb0QFWA3ND62_-WqY5-42">
          <mxGeometry relative="1" as="geometry" />
        </mxCell>
        <mxCell id="hYrb0QFWA3ND62_-WqY5-36" value="generate" style="edgeStyle=orthogonalEdgeStyle;rounded=0;orthogonalLoop=1;jettySize=auto;html=1;entryX=1;entryY=0.75;entryDx=0;entryDy=0;endArrow=classicThin;endFill=1;fontSize=10;exitX=0.25;exitY=1;exitDx=0;exitDy=0;" edge="1" parent="EGHW0OWQz3DH860hegJ5-1" source="hYrb0QFWA3ND62_-WqY5-61" target="hYrb0QFWA3ND62_-WqY5-41">
          <mxGeometry x="0.4545" relative="1" as="geometry">
            <mxPoint as="offset" />
          </mxGeometry>
        </mxCell>
        <mxCell id="hYrb0QFWA3ND62_-WqY5-37" value="develop" style="edgeStyle=orthogonalEdgeStyle;rounded=0;orthogonalLoop=1;jettySize=auto;html=1;entryX=0;entryY=0.5;entryDx=0;entryDy=0;endArrow=classicThin;endFill=1;fontSize=10;" edge="1" parent="EGHW0OWQz3DH860hegJ5-1" source="hYrb0QFWA3ND62_-WqY5-38" target="hYrb0QFWA3ND62_-WqY5-54">
          <mxGeometry relative="1" as="geometry" />
        </mxCell>
        <mxCell id="hYrb0QFWA3ND62_-WqY5-38" value="Software Construction" style="rounded=1;whiteSpace=wrap;html=1;fontSize=10;strokeWidth=2;" vertex="1" parent="EGHW0OWQz3DH860hegJ5-1">
          <mxGeometry x="240" y="560" width="80" height="40" as="geometry" />
        </mxCell>
        <mxCell id="hYrb0QFWA3ND62_-WqY5-39" value="reference" style="edgeStyle=orthogonalEdgeStyle;rounded=0;orthogonalLoop=1;jettySize=auto;html=1;entryX=0.5;entryY=1;entryDx=0;entryDy=0;endArrow=classicThin;endFill=1;fillColor=#ffffff;fontSize=10;" edge="1" parent="EGHW0OWQz3DH860hegJ5-1" source="hYrb0QFWA3ND62_-WqY5-41" target="hYrb0QFWA3ND62_-WqY5-68">
          <mxGeometry relative="1" as="geometry" />
        </mxCell>
        <mxCell id="hYrb0QFWA3ND62_-WqY5-40" value="derived&lt;br&gt;from" style="edgeStyle=orthogonalEdgeStyle;rounded=0;orthogonalLoop=1;jettySize=auto;html=1;entryX=1;entryY=0.75;entryDx=0;entryDy=0;endArrow=classicThin;endFill=1;fillColor=#ffffff;fontSize=10;exitX=1;exitY=0.25;exitDx=0;exitDy=0;" edge="1" parent="EGHW0OWQz3DH860hegJ5-1" source="hYrb0QFWA3ND62_-WqY5-41" target="hYrb0QFWA3ND62_-WqY5-27">
          <mxGeometry relative="1" as="geometry" />
        </mxCell>
        <mxCell id="hYrb0QFWA3ND62_-WqY5-41" value="Test Report" style="rounded=0;whiteSpace=wrap;html=1;fontSize=10;strokeColor=#82b366;strokeWidth=2;fillColor=none;" vertex="1" parent="EGHW0OWQz3DH860hegJ5-1">
          <mxGeometry x="120" y="740" width="80" height="40" as="geometry" />
        </mxCell>
        <mxCell id="hYrb0QFWA3ND62_-WqY5-42" value="Software Configuration" style="rounded=0;whiteSpace=wrap;html=1;fontSize=10;strokeColor=#6c8ebf;fillColor=none;strokeWidth=2;" vertex="1" parent="EGHW0OWQz3DH860hegJ5-1">
          <mxGeometry x="360" y="620" width="80" height="40" as="geometry" />
        </mxCell>
        <mxCell id="hYrb0QFWA3ND62_-WqY5-43" value="delivers" style="rounded=0;orthogonalLoop=1;jettySize=auto;html=1;entryX=0.5;entryY=0;entryDx=0;entryDy=0;endArrow=classicThin;endFill=1;fontSize=10;exitX=0.5;exitY=1;exitDx=0;exitDy=0;" edge="1" parent="EGHW0OWQz3DH860hegJ5-1" source="hYrb0QFWA3ND62_-WqY5-45" target="hYrb0QFWA3ND62_-WqY5-71">
          <mxGeometry relative="1" as="geometry" />
        </mxCell>
        <mxCell id="hYrb0QFWA3ND62_-WqY5-44" value="use" style="edgeStyle=orthogonalEdgeStyle;rounded=0;orthogonalLoop=1;jettySize=auto;html=1;entryX=0.75;entryY=1;entryDx=0;entryDy=0;endArrow=classicThin;endFill=1;fontSize=10;" edge="1" parent="EGHW0OWQz3DH860hegJ5-1" source="hYrb0QFWA3ND62_-WqY5-45" target="hYrb0QFWA3ND62_-WqY5-54">
          <mxGeometry x="-0.2727" relative="1" as="geometry">
            <mxPoint as="offset" />
          </mxGeometry>
        </mxCell>
        <mxCell id="hYrb0QFWA3ND62_-WqY5-45" value="Product Delivery" style="rounded=1;whiteSpace=wrap;html=1;fontSize=10;strokeWidth=2;" vertex="1" parent="EGHW0OWQz3DH860hegJ5-1">
          <mxGeometry x="240" y="800" width="80" height="40" as="geometry" />
        </mxCell>
        <mxCell id="hYrb0QFWA3ND62_-WqY5-46" style="edgeStyle=orthogonalEdgeStyle;rounded=0;orthogonalLoop=1;jettySize=auto;html=1;entryX=1;entryY=0.5;entryDx=0;entryDy=0;endArrow=classicThin;endFill=1;fontSize=10;" edge="1" parent="EGHW0OWQz3DH860hegJ5-1" source="hYrb0QFWA3ND62_-WqY5-48" target="hYrb0QFWA3ND62_-WqY5-26">
          <mxGeometry relative="1" as="geometry" />
        </mxCell>
        <mxCell id="hYrb0QFWA3ND62_-WqY5-47" value="ref" style="edgeStyle=orthogonalEdgeStyle;rounded=0;orthogonalLoop=1;jettySize=auto;html=1;entryX=1;entryY=0.75;entryDx=0;entryDy=0;endArrow=classicThin;endFill=1;fontSize=10;exitX=0;exitY=0.75;exitDx=0;exitDy=0;" edge="1" parent="EGHW0OWQz3DH860hegJ5-1" source="hYrb0QFWA3ND62_-WqY5-48" target="hYrb0QFWA3ND62_-WqY5-54">
          <mxGeometry relative="1" as="geometry" />
        </mxCell>
        <mxCell id="hYrb0QFWA3ND62_-WqY5-48" value="Maintenance Documentation" style="rounded=0;whiteSpace=wrap;html=1;fontSize=10;strokeColor=#6c8ebf;fillColor=none;strokeWidth=2;" vertex="1" parent="EGHW0OWQz3DH860hegJ5-1">
          <mxGeometry x="600" y="560" width="80" height="40" as="geometry" />
        </mxCell>
        <mxCell id="hYrb0QFWA3ND62_-WqY5-49" style="edgeStyle=orthogonalEdgeStyle;rounded=0;orthogonalLoop=1;jettySize=auto;html=1;entryX=1;entryY=0.5;entryDx=0;entryDy=0;endArrow=classicThin;endFill=1;fontSize=10;" edge="1" parent="EGHW0OWQz3DH860hegJ5-1" source="hYrb0QFWA3ND62_-WqY5-50" target="hYrb0QFWA3ND62_-WqY5-26">
          <mxGeometry relative="1" as="geometry" />
        </mxCell>
        <mxCell id="hYrb0QFWA3ND62_-WqY5-50" value="Support Guide/ Documentation" style="rounded=0;whiteSpace=wrap;html=1;fontSize=10;strokeColor=#6c8ebf;fillColor=none;strokeWidth=2;" vertex="1" parent="EGHW0OWQz3DH860hegJ5-1">
          <mxGeometry x="600" y="440" width="80" height="40" as="geometry" />
        </mxCell>
        <mxCell id="hYrb0QFWA3ND62_-WqY5-51" style="edgeStyle=orthogonalEdgeStyle;rounded=0;orthogonalLoop=1;jettySize=auto;html=1;entryX=1;entryY=0.5;entryDx=0;entryDy=0;endArrow=classicThin;endFill=1;fontSize=10;" edge="1" parent="EGHW0OWQz3DH860hegJ5-1" source="hYrb0QFWA3ND62_-WqY5-52" target="hYrb0QFWA3ND62_-WqY5-26">
          <mxGeometry relative="1" as="geometry" />
        </mxCell>
        <mxCell id="hYrb0QFWA3ND62_-WqY5-52" value="Operations Guide/ Documentation" style="rounded=0;whiteSpace=wrap;html=1;fontSize=10;strokeColor=#6c8ebf;fillColor=none;strokeWidth=2;" vertex="1" parent="EGHW0OWQz3DH860hegJ5-1">
          <mxGeometry x="600" y="500" width="80" height="40" as="geometry" />
        </mxCell>
        <mxCell id="hYrb0QFWA3ND62_-WqY5-53" value="reference" style="edgeStyle=orthogonalEdgeStyle;rounded=0;orthogonalLoop=1;jettySize=auto;html=1;entryX=0.75;entryY=0;entryDx=0;entryDy=0;endArrow=classicThin;endFill=1;fontSize=10;exitX=0;exitY=0.75;exitDx=0;exitDy=0;" edge="1" parent="EGHW0OWQz3DH860hegJ5-1" source="hYrb0QFWA3ND62_-WqY5-54" target="hYrb0QFWA3ND62_-WqY5-42">
          <mxGeometry relative="1" as="geometry" />
        </mxCell>
        <mxCell id="hYrb0QFWA3ND62_-WqY5-54" value="System Deployment Guide" style="rounded=0;whiteSpace=wrap;html=1;fontSize=10;strokeColor=#6c8ebf;fillColor=none;strokeWidth=2;" vertex="1" parent="EGHW0OWQz3DH860hegJ5-1">
          <mxGeometry x="480" y="560" width="80" height="40" as="geometry" />
        </mxCell>
        <mxCell id="hYrb0QFWA3ND62_-WqY5-55" value="" style="shape=flexArrow;endArrow=classic;html=1;fontSize=10;entryX=0.5;entryY=0;entryDx=0;entryDy=0;exitX=0.5;exitY=1;exitDx=0;exitDy=0;strokeWidth=2;" edge="1" parent="EGHW0OWQz3DH860hegJ5-1" source="hYrb0QFWA3ND62_-WqY5-38" target="hYrb0QFWA3ND62_-WqY5-61">
          <mxGeometry width="50" height="50" relative="1" as="geometry">
            <mxPoint x="-50" y="630" as="sourcePoint" />
            <mxPoint y="580" as="targetPoint" />
          </mxGeometry>
        </mxCell>
        <mxCell id="hYrb0QFWA3ND62_-WqY5-56" value="" style="shape=flexArrow;endArrow=classic;html=1;fontSize=10;entryX=0.5;entryY=0;entryDx=0;entryDy=0;exitX=0.5;exitY=1;exitDx=0;exitDy=0;strokeWidth=2;" edge="1" parent="EGHW0OWQz3DH860hegJ5-1" source="hYrb0QFWA3ND62_-WqY5-33" target="hYrb0QFWA3ND62_-WqY5-38">
          <mxGeometry width="50" height="50" relative="1" as="geometry">
            <mxPoint x="20" y="640" as="sourcePoint" />
            <mxPoint x="70" y="590" as="targetPoint" />
          </mxGeometry>
        </mxCell>
        <mxCell id="hYrb0QFWA3ND62_-WqY5-57" value="" style="shape=flexArrow;endArrow=classic;html=1;fontSize=10;entryX=0.5;entryY=0;entryDx=0;entryDy=0;exitX=0.5;exitY=1;exitDx=0;exitDy=0;strokeWidth=2;" edge="1" parent="EGHW0OWQz3DH860hegJ5-1" source="hYrb0QFWA3ND62_-WqY5-14" target="hYrb0QFWA3ND62_-WqY5-21">
          <mxGeometry width="50" height="50" relative="1" as="geometry">
            <mxPoint y="420" as="sourcePoint" />
            <mxPoint x="50" y="370" as="targetPoint" />
          </mxGeometry>
        </mxCell>
        <mxCell id="hYrb0QFWA3ND62_-WqY5-58" value="follow" style="edgeStyle=orthogonalEdgeStyle;rounded=0;orthogonalLoop=1;jettySize=auto;html=1;entryX=1;entryY=0.25;entryDx=0;entryDy=0;endArrow=classicThin;endFill=1;fontSize=10;exitX=0.25;exitY=0;exitDx=0;exitDy=0;" edge="1" parent="EGHW0OWQz3DH860hegJ5-1" source="hYrb0QFWA3ND62_-WqY5-61" target="hYrb0QFWA3ND62_-WqY5-27">
          <mxGeometry relative="1" as="geometry" />
        </mxCell>
        <mxCell id="hYrb0QFWA3ND62_-WqY5-59" value="reference" style="edgeStyle=orthogonalEdgeStyle;rounded=0;orthogonalLoop=1;jettySize=auto;html=1;entryX=0.25;entryY=1;entryDx=0;entryDy=0;endArrow=classicThin;endFill=1;fontSize=10;exitX=1;exitY=0.25;exitDx=0;exitDy=0;" edge="1" parent="EGHW0OWQz3DH860hegJ5-1" source="hYrb0QFWA3ND62_-WqY5-61" target="hYrb0QFWA3ND62_-WqY5-54">
          <mxGeometry relative="1" as="geometry" />
        </mxCell>
        <mxCell id="hYrb0QFWA3ND62_-WqY5-60" value="append/update" style="edgeStyle=orthogonalEdgeStyle;rounded=0;orthogonalLoop=1;jettySize=auto;html=1;entryX=0.5;entryY=1;entryDx=0;entryDy=0;endArrow=classicThin;endFill=1;fontSize=10;exitX=1;exitY=0.75;exitDx=0;exitDy=0;" edge="1" parent="EGHW0OWQz3DH860hegJ5-1" source="hYrb0QFWA3ND62_-WqY5-61" target="hYrb0QFWA3ND62_-WqY5-54">
          <mxGeometry relative="1" as="geometry" />
        </mxCell>
        <mxCell id="hYrb0QFWA3ND62_-WqY5-61" value="Software Integration &amp;amp; Tests" style="rounded=1;whiteSpace=wrap;html=1;fontSize=10;strokeWidth=2;" vertex="1" parent="EGHW0OWQz3DH860hegJ5-1">
          <mxGeometry x="240" y="680" width="80" height="40" as="geometry" />
        </mxCell>
        <mxCell id="hYrb0QFWA3ND62_-WqY5-62" value="" style="shape=flexArrow;endArrow=classic;html=1;fontSize=10;entryX=0.5;entryY=0;entryDx=0;entryDy=0;exitX=0.5;exitY=1;exitDx=0;exitDy=0;strokeWidth=2;" edge="1" parent="EGHW0OWQz3DH860hegJ5-1" source="hYrb0QFWA3ND62_-WqY5-61" target="hYrb0QFWA3ND62_-WqY5-45">
          <mxGeometry width="50" height="50" relative="1" as="geometry">
            <mxPoint x="290" y="610" as="sourcePoint" />
            <mxPoint x="290" y="690" as="targetPoint" />
          </mxGeometry>
        </mxCell>
        <mxCell id="hYrb0QFWA3ND62_-WqY5-63" value="update" style="edgeStyle=orthogonalEdgeStyle;rounded=0;orthogonalLoop=1;jettySize=auto;html=1;entryX=0.75;entryY=1;entryDx=0;entryDy=0;endArrow=classicThin;endFill=1;fontSize=10;exitX=0;exitY=0.25;exitDx=0;exitDy=0;" edge="1" parent="EGHW0OWQz3DH860hegJ5-1" source="hYrb0QFWA3ND62_-WqY5-26" target="hYrb0QFWA3ND62_-WqY5-25">
          <mxGeometry relative="1" as="geometry">
            <mxPoint x="530" y="450" as="sourcePoint" />
            <mxPoint x="450" y="310" as="targetPoint" />
          </mxGeometry>
        </mxCell>
        <mxCell id="hYrb0QFWA3ND62_-WqY5-64" style="edgeStyle=orthogonalEdgeStyle;rounded=0;orthogonalLoop=1;jettySize=auto;html=1;entryX=1;entryY=0.5;entryDx=0;entryDy=0;endArrow=classicThin;endFill=1;fontSize=10;" edge="1" parent="EGHW0OWQz3DH860hegJ5-1" source="hYrb0QFWA3ND62_-WqY5-65" target="hYrb0QFWA3ND62_-WqY5-26">
          <mxGeometry relative="1" as="geometry" />
        </mxCell>
        <mxCell id="hYrb0QFWA3ND62_-WqY5-65" value="User Guide" style="rounded=0;whiteSpace=wrap;html=1;fontSize=10;strokeColor=#6c8ebf;fillColor=none;strokeWidth=2;" vertex="1" parent="EGHW0OWQz3DH860hegJ5-1">
          <mxGeometry x="600" y="380" width="80" height="40" as="geometry" />
        </mxCell>
        <mxCell id="hYrb0QFWA3ND62_-WqY5-66" value="" style="shape=flexArrow;endArrow=classic;html=1;fontSize=10;entryX=0.5;entryY=0;entryDx=0;entryDy=0;exitX=0.5;exitY=1;exitDx=0;exitDy=0;fillColor=#ffffff;strokeWidth=2;" edge="1" parent="EGHW0OWQz3DH860hegJ5-1" source="hYrb0QFWA3ND62_-WqY5-21" target="hYrb0QFWA3ND62_-WqY5-33">
          <mxGeometry width="50" height="50" relative="1" as="geometry">
            <mxPoint x="20" y="440" as="sourcePoint" />
            <mxPoint x="70" y="390" as="targetPoint" />
          </mxGeometry>
        </mxCell>
        <mxCell id="hYrb0QFWA3ND62_-WqY5-67" value="ref" style="edgeStyle=orthogonalEdgeStyle;rounded=0;orthogonalLoop=1;jettySize=auto;html=1;entryX=0.5;entryY=1;entryDx=0;entryDy=0;endArrow=classicThin;endFill=1;fillColor=#ffffff;fontSize=10;" edge="1" parent="EGHW0OWQz3DH860hegJ5-1" source="hYrb0QFWA3ND62_-WqY5-68" target="hYrb0QFWA3ND62_-WqY5-27">
          <mxGeometry relative="1" as="geometry" />
        </mxCell>
        <mxCell id="hYrb0QFWA3ND62_-WqY5-68" value="Traceability Report" style="rounded=0;whiteSpace=wrap;html=1;fontSize=10;strokeWidth=2;" vertex="1" parent="EGHW0OWQz3DH860hegJ5-1">
          <mxGeometry x="120" y="680" width="80" height="40" as="geometry" />
        </mxCell>
        <mxCell id="hYrb0QFWA3ND62_-WqY5-69" value="relies on" style="edgeStyle=orthogonalEdgeStyle;rounded=0;orthogonalLoop=1;jettySize=auto;html=1;entryX=0.5;entryY=1;entryDx=0;entryDy=0;endArrow=classicThin;endFill=1;fontSize=10;exitX=1;exitY=0.5;exitDx=0;exitDy=0;jumpStyle=arc;" edge="1" parent="EGHW0OWQz3DH860hegJ5-1" source="hYrb0QFWA3ND62_-WqY5-71" target="hYrb0QFWA3ND62_-WqY5-42">
          <mxGeometry x="0.2667" relative="1" as="geometry">
            <mxPoint as="offset" />
          </mxGeometry>
        </mxCell>
        <mxCell id="hYrb0QFWA3ND62_-WqY5-70" value="includes" style="edgeStyle=orthogonalEdgeStyle;rounded=0;jumpStyle=arc;orthogonalLoop=1;jettySize=auto;html=1;entryX=1;entryY=0.75;entryDx=0;entryDy=0;endArrow=classicThin;endFill=1;strokeWidth=1;fillColor=#ffffff;fontSize=10;exitX=0;exitY=0.75;exitDx=0;exitDy=0;" edge="1" parent="EGHW0OWQz3DH860hegJ5-1" source="hYrb0QFWA3ND62_-WqY5-71" target="hYrb0QFWA3ND62_-WqY5-23">
          <mxGeometry relative="1" as="geometry" />
        </mxCell>
        <mxCell id="hYrb0QFWA3ND62_-WqY5-71" value="Deployed System" style="rounded=0;whiteSpace=wrap;html=1;fontSize=10;strokeColor=#6c8ebf;fillColor=none;strokeWidth=2;" vertex="1" parent="EGHW0OWQz3DH860hegJ5-1">
          <mxGeometry x="240" y="860" width="80" height="40" as="geometry" />
        </mxCell>
        <mxCell id="hYrb0QFWA3ND62_-WqY5-72" value="&lt;font style=&quot;font-size: 12px ; font-weight: normal&quot;&gt;&lt;i&gt;Diagram: Base&amp;nbsp;&lt;/i&gt;&lt;span style=&quot;font-style: italic&quot;&gt;System&lt;/span&gt;&lt;span style=&quot;font-style: italic&quot;&gt;&amp;nbsp;&lt;/span&gt;&lt;i&gt;Logical Module - ISO 29110 Implementation Process Activities &amp;amp; Tasks&lt;/i&gt;&lt;/font&gt;" style="text;strokeColor=none;fillColor=none;html=1;fontSize=12;fontStyle=1;verticalAlign=middle;align=left;shadow=0;glass=0;comic=0;opacity=30;fontColor=#808080;" vertex="1" parent="EGHW0OWQz3DH860hegJ5-1">
          <mxGeometry x="120" y="920" width="510" height="20" as="geometry" />
        </mxCell>
      </root>
    </mxGraphModel>
  </diagram>
</mxfile>
